<svg xmlns="http://www.w3.org/2000/svg" viewBox="0 0 200 60" width="200" height="60">
  <!-- Background -->
  <rect width="200" height="60" rx="6" fill="#1a1a2e"/>
  <!-- ONNX-style hexagon nodes -->
  <polygon points="20,10 32,10 38,20 32,30 20,30 14,20" fill="none" stroke="#4fa3e0" stroke-width="2"/>
  <polygon points="44,10 56,10 62,20 56,30 44,30 38,20" fill="none" stroke="#4fa3e0" stroke-width="2"/>
  <polygon points="68,10 80,10 86,20 80,30 68,30 62,20" fill="none" stroke="#4fa3e0" stroke-width="2"/>
  <!-- Connecting lines -->
  <line x1="38" y1="20" x2="44" y2="20" stroke="#4fa3e0" stroke-width="1.5"/>
  <line x1="62" y1="20" x2="68" y2="20" stroke="#4fa3e0" stroke-width="1.5"/>
  <!-- Node dots -->
  <circle cx="20" cy="20" r="2.5" fill="#4fa3e0"/>
  <circle cx="38" cy="20" r="2.5" fill="#4fa3e0"/>
  <circle cx="50" cy="20" r="2.5" fill="#4fa3e0"/>
  <circle cx="62" cy="20" r="2.5" fill="#4fa3e0"/>
  <circle cx="80" cy="20" r="2.5" fill="#4fa3e0"/>
  <!-- Arrow pointing to build output -->
  <line x1="86" y1="20" x2="96" y2="20" stroke="#e07b4f" stroke-width="2"/>
  <polygon points="96,16 104,20 96,24" fill="#e07b4f"/>
  <!-- Block (builder output) -->
  <rect x="106" y="10" width="20" height="20" rx="3" fill="#e07b4f"/>
  <line x1="111" y1="14" x2="121" y2="14" stroke="white" stroke-width="1.5"/>
  <line x1="111" y1="18" x2="121" y2="18" stroke="white" stroke-width="1.5"/>
  <line x1="111" y1="22" x2="121" y2="22" stroke="white" stroke-width="1.5"/>
  <!-- Text label -->
  <text x="135" y="24" font-family="monospace" font-size="11" fill="#ffffff" font-weight="bold">yobx</text>
  <!-- Subtitle -->
  <text x="14" y="46" font-family="sans-serif" font-size="8" fill="#a0b0c0">yet-another-onnx-builder</text>
</svg>
